%TF.GenerationSoftware,KiCad,Pcbnew,10.0.3*%
%TF.CreationDate,2026-05-24T03:38:13-07:00*%
%TF.ProjectId,swerve carrier board,73776572-7665-4206-9361-727269657220,rev?*%
%TF.SameCoordinates,Original*%
%TF.FileFunction,Copper,L2,Bot*%
%TF.FilePolarity,Positive*%
%FSLAX46Y46*%
G04 Gerber Fmt 4.6, Leading zero omitted, Abs format (unit mm)*
G04 Created by KiCad (PCBNEW 10.0.3) date 2026-05-24 03:38:13*
%MOMM*%
%LPD*%
G01*
G04 APERTURE LIST*
G04 Aperture macros list*
%AMRoundRect*
0 Rectangle with rounded corners*
0 $1 Rounding radius*
0 $2 $3 $4 $5 $6 $7 $8 $9 X,Y pos of 4 corners*
0 Add a 4 corners polygon primitive as box body*
4,1,4,$2,$3,$4,$5,$6,$7,$8,$9,$2,$3,0*
0 Add four circle primitives for the rounded corners*
1,1,$1+$1,$2,$3*
1,1,$1+$1,$4,$5*
1,1,$1+$1,$6,$7*
1,1,$1+$1,$8,$9*
0 Add four rect primitives between the rounded corners*
20,1,$1+$1,$2,$3,$4,$5,0*
20,1,$1+$1,$4,$5,$6,$7,0*
20,1,$1+$1,$6,$7,$8,$9,0*
20,1,$1+$1,$8,$9,$2,$3,0*%
G04 Aperture macros list end*
%TA.AperFunction,ComponentPad*%
%ADD10C,1.700000*%
%TD*%
%TA.AperFunction,ComponentPad*%
%ADD11R,1.700000X1.700000*%
%TD*%
%TA.AperFunction,ComponentPad*%
%ADD12C,1.600000*%
%TD*%
%TA.AperFunction,ComponentPad*%
%ADD13RoundRect,0.250000X-0.550000X-0.550000X0.550000X-0.550000X0.550000X0.550000X-0.550000X0.550000X0*%
%TD*%
%TA.AperFunction,ComponentPad*%
%ADD14C,2.200000*%
%TD*%
%TA.AperFunction,Conductor*%
%ADD15C,0.500000*%
%TD*%
%TA.AperFunction,Conductor*%
%ADD16C,0.250000*%
%TD*%
G04 APERTURE END LIST*
D10*
%TO.P,J_DSHOT1,5,Pin_5_5*%
%TO.N,GND*%
X156550000Y-135030000D03*
%TO.P,J_DSHOT1,4,Pin_4_4*%
%TO.N,Net-(J5-Pin_7)*%
X156550000Y-132490000D03*
%TO.P,J_DSHOT1,3,Pin_3_3*%
%TO.N,Net-(J5-Pin_6)*%
X156550000Y-129950000D03*
%TO.P,J_DSHOT1,2,Pin_2_2*%
%TO.N,Net-(J5-Pin_5)*%
X156550000Y-127410000D03*
D11*
%TO.P,J_DSHOT1,1,Pin_1_1*%
%TO.N,Net-(J5-Pin_4)*%
X156550000Y-124870000D03*
%TD*%
%TO.P,J_ELRS1,1,Pin_1_1*%
%TO.N,GND*%
X127870000Y-105210000D03*
D10*
%TO.P,J_ELRS1,2,Pin_2_2*%
%TO.N,+5V*%
X127870000Y-107750000D03*
%TO.P,J_ELRS1,3,Pin_3_3*%
%TO.N,Net-(J5-Pin_10)*%
X127870000Y-110290000D03*
%TO.P,J_ELRS1,4,Pin_4_4*%
%TO.N,Net-(J5-Pin_9)*%
X127870000Y-112830000D03*
%TD*%
D12*
%TO.P,C1,2*%
%TO.N,GND*%
X142320000Y-39720000D03*
D13*
%TO.P,C1,1*%
%TO.N,+5V*%
X139820000Y-39720000D03*
%TD*%
D14*
%TO.P,SW1,1,1_1*%
%TO.N,GND*%
X126810000Y-75720000D03*
%TO.P,SW1,2,2_2*%
%TO.N,Net-(J5-Pin_3)*%
X120460000Y-78260000D03*
%TD*%
D11*
%TO.P,J_STEER2,1,Pin_1_1*%
%TO.N,unconnected-(J_STEER2-Pin_1-Pad1)*%
X186350000Y-98720000D03*
D10*
%TO.P,J_STEER2,2,Pin_2_2*%
%TO.N,unconnected-(J_STEER2-Pin_2-Pad2)*%
X186350000Y-101260000D03*
%TO.P,J_STEER2,3,Pin_3_3*%
%TO.N,Net-(J5-Pin_8)*%
X186350000Y-103800000D03*
%TO.P,J_STEER2,4,Pin_4_4*%
%TO.N,Net-(J5-Pin_11)*%
X186350000Y-106340000D03*
%TO.P,J_STEER2,5,Pin_5_5*%
%TO.N,GND*%
X186350000Y-108880000D03*
%TO.P,J_STEER2,6,Pin_6_6*%
%TO.N,unconnected-(J_STEER2-Pin_6-Pad6)*%
X186350000Y-111420000D03*
%TD*%
D11*
%TO.P,J_STEER1,1,Pin_1_1*%
%TO.N,unconnected-(J_STEER1-Pin_1-Pad1)*%
X186000000Y-65170000D03*
D10*
%TO.P,J_STEER1,2,Pin_2_2*%
%TO.N,unconnected-(J_STEER1-Pin_2-Pad2)*%
X186000000Y-67710000D03*
%TO.P,J_STEER1,3,Pin_3_3*%
%TO.N,Net-(J5-Pin_8)*%
X186000000Y-70250000D03*
%TO.P,J_STEER1,4,Pin_4_4*%
%TO.N,Net-(J5-Pin_11)*%
X186000000Y-72790000D03*
%TO.P,J_STEER1,5,Pin_5_5*%
%TO.N,GND*%
X186000000Y-75330000D03*
%TO.P,J_STEER1,6,Pin_6_6*%
%TO.N,unconnected-(J_STEER1-Pin_6-Pad6)*%
X186000000Y-77870000D03*
%TD*%
D13*
%TO.P,C2,1*%
%TO.N,+5V*%
X151520000Y-39720000D03*
D12*
%TO.P,C2,2*%
%TO.N,GND*%
X154020000Y-39720000D03*
%TD*%
D11*
%TO.P,J_VBAT1,1,Pin_1_1*%
%TO.N,Net-(J1-Pin_1)*%
X96420000Y-47090000D03*
D10*
%TO.P,J_VBAT1,2,Pin_2_2*%
%TO.N,GND*%
X96420000Y-49630000D03*
%TD*%
D11*
%TO.P,J2,1,Pin_1_1*%
%TO.N,GND*%
X114415289Y-47651097D03*
%TD*%
%TO.P,J1,1,Pin_1_1*%
%TO.N,Net-(J1-Pin_1)*%
X114415289Y-57651097D03*
%TD*%
%TO.P,J3,1,Pin_1_1*%
%TO.N,+5V*%
X129415289Y-57651097D03*
%TD*%
%TO.P,J4,1,Pin_1_1*%
%TO.N,GND*%
X129415289Y-47651097D03*
%TD*%
%TO.N,GND*%
D15*
X156550000Y-135030000D02*
X182700000Y-108880000D01*
X156550000Y-135030000D02*
X140380000Y-135030000D01*
X186000000Y-75330000D02*
X179460000Y-81870000D01*
X179460000Y-81870000D02*
X179460000Y-105640000D01*
X179460000Y-105640000D02*
X182700000Y-108880000D01*
%TO.N,Net-(J5-Pin_8)*%
D16*
X186350000Y-103800000D02*
X187970000Y-102180000D01*
X187970000Y-102180000D02*
X187970000Y-75448299D01*
X187970000Y-75448299D02*
X186486701Y-73965000D01*
X184825000Y-73276701D02*
X184825000Y-71425000D01*
X186486701Y-73965000D02*
X185513299Y-73965000D01*
X185513299Y-73965000D02*
X184825000Y-73276701D01*
X184825000Y-71425000D02*
X186000000Y-70250000D01*
%TO.N,Net-(J5-Pin_11)*%
X186000000Y-72790000D02*
X191510000Y-78300000D01*
X191510000Y-78300000D02*
X191510000Y-101180000D01*
X191510000Y-101180000D02*
X186350000Y-106340000D01*
%TO.N,+5V*%
D15*
X129415289Y-57651097D02*
X130700000Y-58935808D01*
X130700000Y-58935808D02*
X130700000Y-104920000D01*
X130700000Y-104920000D02*
X127870000Y-107750000D01*
%TO.N,GND*%
X140380000Y-135030000D02*
X114910000Y-109560000D01*
X114910000Y-109560000D02*
X119260000Y-105210000D01*
X119260000Y-105210000D02*
X127870000Y-105210000D01*
X127870000Y-105210000D02*
X127870000Y-76780000D01*
X127870000Y-76780000D02*
X126810000Y-75720000D01*
X126810000Y-75720000D02*
X126810000Y-50256386D01*
X126810000Y-50256386D02*
X129415289Y-47651097D01*
X182700000Y-108880000D02*
X186350000Y-108880000D01*
%TO.N,+5V*%
X151520000Y-39720000D02*
X150270000Y-40970000D01*
X150270000Y-40970000D02*
X141070000Y-40970000D01*
X141070000Y-40970000D02*
X139820000Y-39720000D01*
%TO.N,GND*%
X142320000Y-39720000D02*
X143570000Y-38470000D01*
X143570000Y-38470000D02*
X152770000Y-38470000D01*
X152770000Y-38470000D02*
X154020000Y-39720000D01*
X129415289Y-47651097D02*
X138596386Y-38470000D01*
X138596386Y-38470000D02*
X141070000Y-38470000D01*
X141070000Y-38470000D02*
X142320000Y-39720000D01*
%TO.N,+5V*%
X129415289Y-57651097D02*
X129415289Y-50124711D01*
X129415289Y-50124711D02*
X139820000Y-39720000D01*
%TO.N,GND*%
X114415289Y-47651097D02*
X129415289Y-47651097D01*
X96420000Y-49630000D02*
X95120000Y-48330000D01*
X95120000Y-48330000D02*
X95120000Y-45790000D01*
X95120000Y-45790000D02*
X112554192Y-45790000D01*
X112554192Y-45790000D02*
X114415289Y-47651097D01*
%TO.N,Net-(J1-Pin_1)*%
D16*
X96420000Y-47090000D02*
X106981097Y-57651097D01*
X106981097Y-57651097D02*
X114415289Y-57651097D01*
%TD*%
%TA.AperFunction,Conductor*%
%TO.N,GND*%
G36*
X205577539Y-25805185D02*
G01*
X205623294Y-25857989D01*
X205634500Y-25909500D01*
X205634500Y-144660500D01*
X205614815Y-144727539D01*
X205562011Y-144773294D01*
X205510500Y-144784500D01*
X86759500Y-144784500D01*
X86692461Y-144764815D01*
X86646706Y-144712011D01*
X86635500Y-144660500D01*
X86635500Y-140152451D01*
X89142332Y-140152451D01*
X89142332Y-140414706D01*
X89168955Y-140616918D01*
X89176562Y-140674695D01*
X89241663Y-140917655D01*
X89244434Y-140927997D01*
X89244437Y-140928007D01*
X89344785Y-141170269D01*
X89344790Y-141170279D01*
X89475907Y-141397382D01*
X89635550Y-141605430D01*
X89635558Y-141605439D01*
X89820972Y-141790853D01*
X89820980Y-141790860D01*
X89820981Y-141790861D01*
X89826976Y-141795461D01*
X90029028Y-141950503D01*
X90256131Y-142081620D01*
X90256141Y-142081625D01*
X90498403Y-142181973D01*
X90498413Y-142181977D01*
X90751716Y-142249849D01*
X91011712Y-142284079D01*
X91011719Y-142284079D01*
X91273945Y-142284079D01*
X91273952Y-142284079D01*
X91533948Y-142249849D01*
X91787251Y-142181977D01*
X91964172Y-142108693D01*
X92029522Y-142081625D01*
X92029523Y-142081624D01*
X92029529Y-142081622D01*
X92256635Y-141950503D01*
X92464683Y-141790861D01*
X92464687Y-141790856D01*
X92464692Y-141790853D01*
X92650106Y-141605439D01*
X92650109Y-141605434D01*
X92650114Y-141605430D01*
X92809756Y-141397382D01*
X92940875Y-141170276D01*
X93041230Y-140927998D01*
X93109102Y-140674695D01*
X93143332Y-140414699D01*
X93143332Y-140157051D01*
X199139442Y-140157051D01*
X199139442Y-140419306D01*
X199159772Y-140573719D01*
X199173672Y-140679295D01*
X199240314Y-140928007D01*
X199241544Y-140932597D01*
X199241547Y-140932607D01*
X199341895Y-141174869D01*
X199341900Y-141174879D01*
X199473017Y-141401982D01*
X199632660Y-141610030D01*
X199632668Y-141610039D01*
X199818082Y-141795453D01*
X199818090Y-141795460D01*
X200026138Y-141955103D01*
X200253241Y-142086220D01*
X200253251Y-142086225D01*
X200495513Y-142186573D01*
X200495523Y-142186577D01*
X200748826Y-142254449D01*
X201008822Y-142288679D01*
X201008829Y-142288679D01*
X201271055Y-142288679D01*
X201271062Y-142288679D01*
X201531058Y-142254449D01*
X201784361Y-142186577D01*
X202026639Y-142086222D01*
X202253745Y-141955103D01*
X202461793Y-141795461D01*
X202461797Y-141795456D01*
X202461802Y-141795453D01*
X202647216Y-141610039D01*
X202647219Y-141610034D01*
X202647224Y-141610030D01*
X202806866Y-141401982D01*
X202937985Y-141174876D01*
X203038340Y-140932598D01*
X203106212Y-140679295D01*
X203140442Y-140419299D01*
X203140442Y-140157059D01*
X203106212Y-139897063D01*
X203038340Y-139643760D01*
X203036435Y-139639160D01*
X202937988Y-139401488D01*
X202937983Y-139401478D01*
X202806866Y-139174375D01*
X202647223Y-138966327D01*
X202647216Y-138966319D01*
X202461802Y-138780905D01*
X202461793Y-138780897D01*
X202253745Y-138621254D01*
X202026642Y-138490137D01*
X202026632Y-138490132D01*
X201784370Y-138389784D01*
X201784363Y-138389782D01*
X201784361Y-138389781D01*
X201531058Y-138321909D01*
X201473281Y-138314302D01*
X201271069Y-138287679D01*
X201271062Y-138287679D01*
X201008822Y-138287679D01*
X201008814Y-138287679D01*
X200777714Y-138318105D01*
X200748826Y-138321909D01*
X200512691Y-138385181D01*
X200495523Y-138389781D01*
X200495513Y-138389784D01*
X200253251Y-138490132D01*
X200253241Y-138490137D01*
X200026138Y-138621254D01*
X199818090Y-138780897D01*
X199632660Y-138966327D01*
X199473017Y-139174375D01*
X199341900Y-139401478D01*
X199341895Y-139401488D01*
X199241547Y-139643750D01*
X199241544Y-139643760D01*
X199174905Y-139892464D01*
X199173672Y-139897064D01*
X199139442Y-140157051D01*
X93143332Y-140157051D01*
X93143332Y-140152459D01*
X93109102Y-139892463D01*
X93041230Y-139639160D01*
X92988126Y-139510955D01*
X92940878Y-139396888D01*
X92940873Y-139396878D01*
X92809756Y-139169775D01*
X92650113Y-138961727D01*
X92650106Y-138961719D01*
X92464692Y-138776305D01*
X92464683Y-138776297D01*
X92256635Y-138616654D01*
X92029532Y-138485537D01*
X92029522Y-138485532D01*
X91787260Y-138385184D01*
X91787253Y-138385182D01*
X91787251Y-138385181D01*
X91533948Y-138317309D01*
X91476171Y-138309702D01*
X91273959Y-138283079D01*
X91273952Y-138283079D01*
X91011712Y-138283079D01*
X91011704Y-138283079D01*
X90780604Y-138313505D01*
X90751716Y-138317309D01*
X90498413Y-138385181D01*
X90498403Y-138385184D01*
X90256141Y-138485532D01*
X90256131Y-138485537D01*
X90029028Y-138616654D01*
X89820980Y-138776297D01*
X89635550Y-138961727D01*
X89475907Y-139169775D01*
X89344790Y-139396878D01*
X89344785Y-139396888D01*
X89244437Y-139639150D01*
X89244434Y-139639160D01*
X89196778Y-139817018D01*
X89176562Y-139892464D01*
X89142332Y-140152451D01*
X86635500Y-140152451D01*
X86635500Y-123972135D01*
X155199500Y-123972135D01*
X155199500Y-125767870D01*
X155199501Y-125767876D01*
X155205908Y-125827483D01*
X155256202Y-125962328D01*
X155256206Y-125962335D01*
X155342452Y-126077544D01*
X155342455Y-126077547D01*
X155457664Y-126163793D01*
X155457671Y-126163797D01*
X155589082Y-126212810D01*
X155645016Y-126254681D01*
X155669433Y-126320145D01*
X155654582Y-126388418D01*
X155633431Y-126416673D01*
X155519889Y-126530215D01*
X155394951Y-126702179D01*
X155298444Y-126891585D01*
X155232753Y-127093760D01*
X155199500Y-127303713D01*
X155199500Y-127516286D01*
X155232753Y-127726239D01*
X155298444Y-127928414D01*
X155394951Y-128117820D01*
X155519890Y-128289786D01*
X155670213Y-128440109D01*
X155842182Y-128565050D01*
X155850946Y-128569516D01*
X155901742Y-128617491D01*
X155918536Y-128685312D01*
X155895998Y-128751447D01*
X155850946Y-128790484D01*
X155842182Y-128794949D01*
X155670213Y-128919890D01*
X155519890Y-129070213D01*
X155394951Y-129242179D01*
X155298444Y-129431585D01*
X155232753Y-129633760D01*
X155199500Y-129843713D01*
X155199500Y-130056286D01*
X155232753Y-130266239D01*
X155298444Y-130468414D01*
X155394951Y-130657820D01*
X155519890Y-130829786D01*
X155670213Y-130980109D01*
X155842182Y-131105050D01*
X155850946Y-131109516D01*
X155901742Y-131157491D01*
X155918536Y-131225312D01*
X155895998Y-131291447D01*
X155850946Y-131330484D01*
X155842182Y-131334949D01*
X155670213Y-131459890D01*
X155519890Y-131610213D01*
X155394951Y-131782179D01*
X155298444Y-131971585D01*
X155232753Y-132173760D01*
X155199500Y-132383713D01*
X155199500Y-132596286D01*
X155232753Y-132806239D01*
X155298444Y-133008414D01*
X155394951Y-133197820D01*
X155519890Y-133369786D01*
X155670213Y-133520109D01*
X155842179Y-133645048D01*
X155842181Y-133645049D01*
X155842184Y-133645051D01*
X156031588Y-133741557D01*
X156233757Y-133807246D01*
X156443713Y-133840500D01*
X156443714Y-133840500D01*
X156656286Y-133840500D01*
X156656287Y-133840500D01*
X156866243Y-133807246D01*
X157068412Y-133741557D01*
X157257816Y-133645051D01*
X157279789Y-133629086D01*
X157429786Y-133520109D01*
X157429788Y-133520106D01*
X157429792Y-133520104D01*
X157580104Y-133369792D01*
X157580106Y-133369788D01*
X157580109Y-133369786D01*
X157705048Y-133197820D01*
X157705047Y-133197820D01*
X157705051Y-133197816D01*
X157801557Y-133008412D01*
X157867246Y-132806243D01*
X157900500Y-132596287D01*
X157900500Y-132383713D01*
X157867246Y-132173757D01*
X157801557Y-131971588D01*
X157705051Y-131782184D01*
X157705049Y-131782181D01*
X157705048Y-131782179D01*
X157580109Y-131610213D01*
X157429786Y-131459890D01*
X157257820Y-131334951D01*
X157257115Y-131334591D01*
X157249054Y-131330485D01*
X157198259Y-131282512D01*
X157181463Y-131214692D01*
X157203999Y-131148556D01*
X157249054Y-131109515D01*
X157257816Y-131105051D01*
X157279789Y-131089086D01*
X157429786Y-130980109D01*
X157429788Y-130980106D01*
X157429792Y-130980104D01*
X157580104Y-130829792D01*
X157580106Y-130829788D01*
X157580109Y-130829786D01*
X157705048Y-130657820D01*
X157705047Y-130657820D01*
X157705051Y-130657816D01*
X157801557Y-130468412D01*
X157867246Y-130266243D01*
X157900500Y-130056287D01*
X157900500Y-129843713D01*
X157867246Y-129633757D01*
X157801557Y-129431588D01*
X157705051Y-129242184D01*
X157705049Y-129242181D01*
X157705048Y-129242179D01*
X157580109Y-129070213D01*
X157429786Y-128919890D01*
X157257820Y-128794951D01*
X157257115Y-128794591D01*
X157249054Y-128790485D01*
X157198259Y-128742512D01*
X157181463Y-128674692D01*
X157203999Y-128608556D01*
X157249054Y-128569515D01*
X157257816Y-128565051D01*
X157279789Y-128549086D01*
X157429786Y-128440109D01*
X157429788Y-128440106D01*
X157429792Y-128440104D01*
X157580104Y-128289792D01*
X157580106Y-128289788D01*
X157580109Y-128289786D01*
X157705048Y-128117820D01*
X157705047Y-128117820D01*
X157705051Y-128117816D01*
X157801557Y-127928412D01*
X157867246Y-127726243D01*
X157900500Y-127516287D01*
X157900500Y-127303713D01*
X157867246Y-127093757D01*
X157801557Y-126891588D01*
X157705051Y-126702184D01*
X157705049Y-126702181D01*
X157705048Y-126702179D01*
X157580109Y-126530213D01*
X157466569Y-126416673D01*
X157433084Y-126355350D01*
X157438068Y-126285658D01*
X157479940Y-126229725D01*
X157510915Y-126212810D01*
X157642331Y-126163796D01*
X157757546Y-126077546D01*
X157843796Y-125962331D01*
X157894091Y-125827483D01*
X157900500Y-125767873D01*
X157900499Y-123972128D01*
X157894091Y-123912517D01*
X157843796Y-123777669D01*
X157843795Y-123777668D01*
X157843793Y-123777664D01*
X157757547Y-123662455D01*
X157757544Y-123662452D01*
X157642335Y-123576206D01*
X157642328Y-123576202D01*
X157507482Y-123525908D01*
X157507483Y-123525908D01*
X157447883Y-123519501D01*
X157447881Y-123519500D01*
X157447873Y-123519500D01*
X157447864Y-123519500D01*
X155652129Y-123519500D01*
X155652123Y-123519501D01*
X155592516Y-123525908D01*
X155457671Y-123576202D01*
X155457664Y-123576206D01*
X155342455Y-123662452D01*
X155342452Y-123662455D01*
X155256206Y-123777664D01*
X155256202Y-123777671D01*
X155205908Y-123912517D01*
X155199501Y-123972116D01*
X155199501Y-123972123D01*
X155199500Y-123972135D01*
X86635500Y-123972135D01*
X86635500Y-107643713D01*
X126519500Y-107643713D01*
X126519500Y-107856286D01*
X126552753Y-108066239D01*
X126618444Y-108268414D01*
X126714951Y-108457820D01*
X126839890Y-108629786D01*
X126990213Y-108780109D01*
X127162182Y-108905050D01*
X127170946Y-108909516D01*
X127221742Y-108957491D01*
X127238536Y-109025312D01*
X127215998Y-109091447D01*
X127170946Y-109130484D01*
X127162182Y-109134949D01*
X126990213Y-109259890D01*
X126839890Y-109410213D01*
X126714951Y-109582179D01*
X126618444Y-109771585D01*
X126552753Y-109973760D01*
X126532323Y-110102753D01*
X126519500Y-110183713D01*
X126519500Y-110396287D01*
X126552754Y-110606243D01*
X126587176Y-110712184D01*
X126618444Y-110808414D01*
X126714951Y-110997820D01*
X126839890Y-111169786D01*
X126990213Y-111320109D01*
X127162182Y-111445050D01*
X127170946Y-111449516D01*
X127221742Y-111497491D01*
X127238536Y-111565312D01*
X127215998Y-111631447D01*
X127170946Y-111670484D01*
X127162182Y-111674949D01*
X126990213Y-111799890D01*
X126839890Y-111950213D01*
X126714951Y-112122179D01*
X126618444Y-112311585D01*
X126552753Y-112513760D01*
X126519500Y-112723713D01*
X126519500Y-112936286D01*
X126552753Y-113146239D01*
X126618444Y-113348414D01*
X126714951Y-113537820D01*
X126839890Y-113709786D01*
X126990213Y-113860109D01*
X127162179Y-113985048D01*
X127162181Y-113985049D01*
X127162184Y-113985051D01*
X127351588Y-114081557D01*
X127553757Y-114147246D01*
X127763713Y-114180500D01*
X127763714Y-114180500D01*
X127976286Y-114180500D01*
X127976287Y-114180500D01*
X128186243Y-114147246D01*
X128388412Y-114081557D01*
X128577816Y-113985051D01*
X128599789Y-113969086D01*
X128749786Y-113860109D01*
X128749788Y-113860106D01*
X128749792Y-113860104D01*
X128900104Y-113709792D01*
X128900106Y-113709788D01*
X128900109Y-113709786D01*
X129025048Y-113537820D01*
X129025047Y-113537820D01*
X129025051Y-113537816D01*
X129121557Y-113348412D01*
X129187246Y-113146243D01*
X129220500Y-112936287D01*
X129220500Y-112723713D01*
X129187246Y-112513757D01*
X129121557Y-112311588D01*
X129025051Y-112122184D01*
X129025049Y-112122181D01*
X129025048Y-112122179D01*
X128900109Y-111950213D01*
X128749786Y-111799890D01*
X128577820Y-111674951D01*
X128577115Y-111674591D01*
X128569054Y-111670485D01*
X128518259Y-111622512D01*
X128501463Y-111554692D01*
X128523999Y-111488556D01*
X128569054Y-111449515D01*
X128577816Y-111445051D01*
X128599789Y-111429086D01*
X128749786Y-111320109D01*
X128749788Y-111320106D01*
X128749792Y-111320104D01*
X128756183Y-111313713D01*
X184999500Y-111313713D01*
X184999500Y-111526287D01*
X185032754Y-111736243D01*
X185053436Y-111799896D01*
X185098444Y-111938414D01*
X185194951Y-112127820D01*
X185319890Y-112299786D01*
X185470213Y-112450109D01*
X185642179Y-112575048D01*
X185642181Y-112575049D01*
X185642184Y-112575051D01*
X185831588Y-112671557D01*
X186033757Y-112737246D01*
X186243713Y-112770500D01*
X186243714Y-112770500D01*
X186456286Y-112770500D01*
X186456287Y-112770500D01*
X186666243Y-112737246D01*
X186868412Y-112671557D01*
X187057816Y-112575051D01*
X187079789Y-112559086D01*
X187229786Y-112450109D01*
X187229788Y-112450106D01*
X187229792Y-112450104D01*
X187380104Y-112299792D01*
X187380106Y-112299788D01*
X187380109Y-112299786D01*
X187505048Y-112127820D01*
X187505047Y-112127820D01*
X187505051Y-112127816D01*
X187601557Y-111938412D01*
X187667246Y-111736243D01*
X187700500Y-111526287D01*
X187700500Y-111313713D01*
X187667246Y-111103757D01*
X187601557Y-110901588D01*
X187505051Y-110712184D01*
X187505049Y-110712181D01*
X187505048Y-110712179D01*
X187380109Y-110540213D01*
X187229786Y-110389890D01*
X187057820Y-110264951D01*
X186868414Y-110168444D01*
X186868413Y-110168443D01*
X186868412Y-110168443D01*
X186666243Y-110102754D01*
X186666241Y-110102753D01*
X186666240Y-110102753D01*
X186504957Y-110077208D01*
X186456287Y-110069500D01*
X186243713Y-110069500D01*
X186195042Y-110077208D01*
X186033760Y-110102753D01*
X185831585Y-110168444D01*
X185642179Y-110264951D01*
X185470213Y-110389890D01*
X185319890Y-110540213D01*
X185194951Y-110712179D01*
X185098444Y-110901585D01*
X185032753Y-111103760D01*
X185022296Y-111169786D01*
X184999500Y-111313713D01*
X128756183Y-111313713D01*
X128900104Y-111169792D01*
X128900106Y-111169788D01*
X128900109Y-111169786D01*
X129025048Y-110997820D01*
X129025047Y-110997820D01*
X129025051Y-110997816D01*
X129121557Y-110808412D01*
X129187246Y-110606243D01*
X129220500Y-110396287D01*
X129220500Y-110183713D01*
X129187246Y-109973757D01*
X129121557Y-109771588D01*
X129025051Y-109582184D01*
X129025049Y-109582181D01*
X129025048Y-109582179D01*
X128900109Y-109410213D01*
X128749786Y-109259890D01*
X128577820Y-109134951D01*
X128577115Y-109134591D01*
X128569054Y-109130485D01*
X128518259Y-109082512D01*
X128501463Y-109014692D01*
X128523999Y-108948556D01*
X128569054Y-108909515D01*
X128577816Y-108905051D01*
X128599789Y-108889086D01*
X128749786Y-108780109D01*
X128749788Y-108780106D01*
X128749792Y-108780104D01*
X128900104Y-108629792D01*
X128900106Y-108629788D01*
X128900109Y-108629786D01*
X129025048Y-108457820D01*
X129025047Y-108457820D01*
X129025051Y-108457816D01*
X129121557Y-108268412D01*
X129187246Y-108066243D01*
X129220500Y-107856287D01*
X129220500Y-107643713D01*
X129205382Y-107548268D01*
X129214336Y-107478979D01*
X129240171Y-107441195D01*
X131282951Y-105398416D01*
X131365084Y-105275495D01*
X131421658Y-105138913D01*
X131450500Y-104993918D01*
X131450500Y-104846083D01*
X131450500Y-71363394D01*
X184199500Y-71363394D01*
X184199500Y-71372080D01*
X184199500Y-73338312D01*
X184223535Y-73459145D01*
X184223540Y-73459162D01*
X184270685Y-73572981D01*
X184270687Y-73572984D01*
X184270688Y-73572987D01*
X184304915Y-73624210D01*
X184339142Y-73675434D01*
X184426267Y-73762559D01*
X184426270Y-73762561D01*
X184433554Y-73769845D01*
X185024315Y-74360606D01*
X185024344Y-74360637D01*
X185114563Y-74450856D01*
X185114566Y-74450858D01*
X185191489Y-74502256D01*
X185217014Y-74519312D01*
X185283696Y-74546932D01*
X185287484Y-74548501D01*
X185287492Y-74548505D01*
X185324726Y-74563927D01*
X185330847Y-74566463D01*
X185391270Y-74578481D01*
X185451692Y-74590500D01*
X185451693Y-74590500D01*
X186176249Y-74590500D01*
X186243288Y-74610185D01*
X186263930Y-74626819D01*
X187308181Y-75671070D01*
X187341666Y-75732393D01*
X187344500Y-75758751D01*
X187344500Y-77041304D01*
X187324815Y-77108343D01*
X187272011Y-77154098D01*
X187202853Y-77164042D01*
X187139297Y-77135017D01*
X187120182Y-77114189D01*
X187030109Y-76990214D01*
X187030105Y-76990209D01*
X186879786Y-76839890D01*
X186707820Y-76714951D01*
X186518414Y-76618444D01*
X186518413Y-76618443D01*
X186518412Y-76618443D01*
X186316243Y-76552754D01*
X186316241Y-76552753D01*
X186316240Y-76552753D01*
X186154957Y-76527208D01*
X186106287Y-76519500D01*
X185893713Y-76519500D01*
X185845042Y-76527208D01*
X185683760Y-76552753D01*
X185481585Y-76618444D01*
X185292179Y-76714951D01*
X185120213Y-76839890D01*
X184969890Y-76990213D01*
X184844951Y-77162179D01*
X184748444Y-77351585D01*
X184682753Y-77553760D01*
X184649500Y-77763713D01*
X184649500Y-77976286D01*
X184682753Y-78186239D01*
X184748444Y-78388414D01*
X184844951Y-78577820D01*
X184969890Y-78749786D01*
X185120213Y-78900109D01*
X185292179Y-79025048D01*
X185292181Y-79025049D01*
X185292184Y-79025051D01*
X185481588Y-79121557D01*
X185683757Y-79187246D01*
X185893713Y-79220500D01*
X185893714Y-79220500D01*
X186106286Y-79220500D01*
X186106287Y-79220500D01*
X186316243Y-79187246D01*
X186518412Y-79121557D01*
X186707816Y-79025051D01*
X186729789Y-79009086D01*
X186879786Y-78900109D01*
X186879788Y-78900106D01*
X186879792Y-78900104D01*
X187030104Y-78749792D01*
X187120182Y-78625809D01*
X187175511Y-78583144D01*
X187245124Y-78577165D01*
X187306920Y-78609770D01*
X187341277Y-78670609D01*
X187344500Y-78698695D01*
X187344500Y-97245500D01*
X187324815Y-97312539D01*
X187272011Y-97358294D01*
X187220500Y-97369500D01*
X185452129Y-97369500D01*
X185452123Y-97369501D01*
X185392516Y-97375908D01*
X185257671Y-97426202D01*
X185257664Y-97426206D01*
X185142455Y-97512452D01*
X185142452Y-97512455D01*
X185056206Y-97627664D01*
X185056202Y-97627671D01*
X185005908Y-97762517D01*
X184999501Y-97822116D01*
X184999500Y-97822135D01*
X184999500Y-99617870D01*
X184999501Y-99617876D01*
X185005908Y-99677483D01*
X185056202Y-99812328D01*
X185056206Y-99812335D01*
X185142452Y-99927544D01*
X185142455Y-99927547D01*
X185257664Y-100013793D01*
X185257671Y-100013797D01*
X185389082Y-100062810D01*
X185445016Y-100104681D01*
X185469433Y-100170145D01*
X185454582Y-100238418D01*
X185433431Y-100266673D01*
X185319889Y-100380215D01*
X185194951Y-100552179D01*
X185098444Y-100741585D01*
X185032753Y-100943760D01*
X184999500Y-101153713D01*
X184999500Y-101366286D01*
X185016922Y-101476288D01*
X185032754Y-101576243D01*
X185065110Y-101675825D01*
X185098444Y-101778414D01*
X185194951Y-101967820D01*
X185319890Y-102139786D01*
X185470213Y-102290109D01*
X185642182Y-102415050D01*
X185650946Y-102419516D01*
X185701742Y-102467491D01*
X185718536Y-102535312D01*
X185695998Y-102601447D01*
X185650946Y-102640484D01*
X185642182Y-102644949D01*
X185470213Y-102769890D01*
X185319890Y-102920213D01*
X185194951Y-103092179D01*
X185098444Y-103281585D01*
X185032753Y-103483760D01*
X184999500Y-103693713D01*
X184999500Y-103906286D01*
X185032753Y-104116239D01*
X185098444Y-104318414D01*
X185194951Y-104507820D01*
X185319890Y-104679786D01*
X185470213Y-104830109D01*
X185642182Y-104955050D01*
X185650946Y-104959516D01*
X185701742Y-105007491D01*
X185718536Y-105075312D01*
X185695998Y-105141447D01*
X185650946Y-105180484D01*
X185642182Y-105184949D01*
X185470213Y-105309890D01*
X185319890Y-105460213D01*
X185194951Y-105632179D01*
X185098444Y-105821585D01*
X185032753Y-106023760D01*
X184999500Y-106233713D01*
X184999500Y-106446287D01*
X185032754Y-106656243D01*
X185053436Y-106719896D01*
X185098444Y-106858414D01*
X185194951Y-107047820D01*
X185319890Y-107219786D01*
X185470213Y-107370109D01*
X185642179Y-107495048D01*
X185642181Y-107495049D01*
X185642184Y-107495051D01*
X185831588Y-107591557D01*
X186033757Y-107657246D01*
X186243713Y-107690500D01*
X186243714Y-107690500D01*
X186456286Y-107690500D01*
X186456287Y-107690500D01*
X186666243Y-107657246D01*
X186868412Y-107591557D01*
X187057816Y-107495051D01*
X187131947Y-107441192D01*
X187229786Y-107370109D01*
X187229788Y-107370106D01*
X187229792Y-107370104D01*
X187380104Y-107219792D01*
X187380106Y-107219788D01*
X187380109Y-107219786D01*
X187505048Y-107047820D01*
X187505047Y-107047820D01*
X187505051Y-107047816D01*
X187601557Y-106858412D01*
X187667246Y-106656243D01*
X187700500Y-106446287D01*
X187700500Y-106233713D01*
X187667246Y-106023757D01*
X187662179Y-106008162D01*
X187660182Y-105938321D01*
X187692426Y-105882162D01*
X191908729Y-101665860D01*
X191908733Y-101665858D01*
X191995858Y-101578733D01*
X192030084Y-101527509D01*
X192064312Y-101476286D01*
X192111463Y-101362451D01*
X192135500Y-101241607D01*
X192135500Y-101118393D01*
X192135500Y-78238394D01*
X192111463Y-78117548D01*
X192111461Y-78117543D01*
X192091962Y-78070468D01*
X192091947Y-78070435D01*
X192091932Y-78070397D01*
X192064312Y-78003715D01*
X192045984Y-77976286D01*
X191995858Y-77901267D01*
X191995855Y-77901263D01*
X187342428Y-73247837D01*
X187308943Y-73186514D01*
X187312178Y-73121837D01*
X187317246Y-73106243D01*
X187350500Y-72896287D01*
X187350500Y-72683713D01*
X187317246Y-72473757D01*
X187251557Y-72271588D01*
X187155051Y-72082184D01*
X187155049Y-72082181D01*
X187155048Y-72082179D01*
X187030109Y-71910213D01*
X186879786Y-71759890D01*
X186707820Y-71634951D01*
X186707115Y-71634591D01*
X186699054Y-71630485D01*
X186648259Y-71582512D01*
X186631463Y-71514692D01*
X186653999Y-71448556D01*
X186699054Y-71409515D01*
X186707816Y-71405051D01*
X186753197Y-71372080D01*
X186879786Y-71280109D01*
X186879788Y-71280106D01*
X186879792Y-71280104D01*
X187030104Y-71129792D01*
X187030106Y-71129788D01*
X187030109Y-71129786D01*
X187155048Y-70957820D01*
X187155047Y-70957820D01*
X187155051Y-70957816D01*
X187251557Y-70768412D01*
X187317246Y-70566243D01*
X187350500Y-70356287D01*
X187350500Y-70143713D01*
X187317246Y-69933757D01*
X187251557Y-69731588D01*
X187155051Y-69542184D01*
X187155049Y-69542181D01*
X187155048Y-69542179D01*
X187030109Y-69370213D01*
X186879786Y-69219890D01*
X186707820Y-69094951D01*
X186707115Y-69094591D01*
X186699054Y-69090485D01*
X186648259Y-69042512D01*
X186631463Y-68974692D01*
X186653999Y-68908556D01*
X186699054Y-68869515D01*
X186707816Y-68865051D01*
X186729789Y-68849086D01*
X186879786Y-68740109D01*
X186879788Y-68740106D01*
X186879792Y-68740104D01*
X187030104Y-68589792D01*
X187030106Y-68589788D01*
X187030109Y-68589786D01*
X187155048Y-68417820D01*
X187155047Y-68417820D01*
X187155051Y-68417816D01*
X187251557Y-68228412D01*
X187317246Y-68026243D01*
X187350500Y-67816287D01*
X187350500Y-67603713D01*
X187317246Y-67393757D01*
X187251557Y-67191588D01*
X187155051Y-67002184D01*
X187155049Y-67002181D01*
X187155048Y-67002179D01*
X187030109Y-66830213D01*
X186916569Y-66716673D01*
X186883084Y-66655350D01*
X186888068Y-66585658D01*
X186929940Y-66529725D01*
X186960915Y-66512810D01*
X187092331Y-66463796D01*
X187207546Y-66377546D01*
X187293796Y-66262331D01*
X187344091Y-66127483D01*
X187350500Y-66067873D01*
X187350499Y-64272128D01*
X187344091Y-64212517D01*
X187293796Y-64077669D01*
X187293795Y-64077668D01*
X187293793Y-64077664D01*
X187207547Y-63962455D01*
X187207544Y-63962452D01*
X187092335Y-63876206D01*
X187092328Y-63876202D01*
X186957482Y-63825908D01*
X186957483Y-63825908D01*
X186897883Y-63819501D01*
X186897881Y-63819500D01*
X186897873Y-63819500D01*
X186897864Y-63819500D01*
X185102129Y-63819500D01*
X185102123Y-63819501D01*
X185042516Y-63825908D01*
X184907671Y-63876202D01*
X184907664Y-63876206D01*
X184792455Y-63962452D01*
X184792452Y-63962455D01*
X184706206Y-64077664D01*
X184706202Y-64077671D01*
X184655908Y-64212517D01*
X184649501Y-64272116D01*
X184649501Y-64272123D01*
X184649500Y-64272135D01*
X184649500Y-66067870D01*
X184649501Y-66067876D01*
X184655908Y-66127483D01*
X184706202Y-66262328D01*
X184706206Y-66262335D01*
X184792452Y-66377544D01*
X184792455Y-66377547D01*
X184907664Y-66463793D01*
X184907671Y-66463797D01*
X185039082Y-66512810D01*
X185095016Y-66554681D01*
X185119433Y-66620145D01*
X185104582Y-66688418D01*
X185083431Y-66716673D01*
X184969889Y-66830215D01*
X184844951Y-67002179D01*
X184748444Y-67191585D01*
X184682753Y-67393760D01*
X184649500Y-67603713D01*
X184649500Y-67816286D01*
X184682753Y-68026239D01*
X184748444Y-68228414D01*
X184844951Y-68417820D01*
X184969890Y-68589786D01*
X185120213Y-68740109D01*
X185292182Y-68865050D01*
X185300946Y-68869516D01*
X185351742Y-68917491D01*
X185368536Y-68985312D01*
X185345998Y-69051447D01*
X185300946Y-69090484D01*
X185292182Y-69094949D01*
X185120213Y-69219890D01*
X184969890Y-69370213D01*
X184844951Y-69542179D01*
X184748444Y-69731585D01*
X184682753Y-69933760D01*
X184649500Y-70143713D01*
X184649500Y-70356286D01*
X184682753Y-70566241D01*
X184687821Y-70581837D01*
X184689816Y-70651678D01*
X184657571Y-70707837D01*
X184426270Y-70939139D01*
X184339144Y-71026264D01*
X184339138Y-71026272D01*
X184270692Y-71128705D01*
X184270684Y-71128719D01*
X184241042Y-71200284D01*
X184241040Y-71200289D01*
X184237347Y-71209207D01*
X184223537Y-71242548D01*
X184199500Y-71363394D01*
X131450500Y-71363394D01*
X131450500Y-58861890D01*
X131450500Y-58861887D01*
X131428746Y-58752529D01*
X131426936Y-58743428D01*
X131421659Y-58716896D01*
X131378685Y-58613148D01*
X131376793Y-58608580D01*
X131365087Y-58580319D01*
X131365086Y-58580316D01*
X131332186Y-58531078D01*
X131332185Y-58531076D01*
X131282956Y-58457397D01*
X131282952Y-58457392D01*
X130802107Y-57976547D01*
X130768622Y-57915224D01*
X130765788Y-57888866D01*
X130765788Y-56753226D01*
X130765787Y-56753220D01*
X130765786Y-56753213D01*
X130759380Y-56693614D01*
X130709085Y-56558766D01*
X130709084Y-56558765D01*
X130709082Y-56558761D01*
X130622836Y-56443552D01*
X130622833Y-56443549D01*
X130507624Y-56357303D01*
X130507617Y-56357299D01*
X130372771Y-56307005D01*
X130372772Y-56307005D01*
X130313172Y-56300598D01*
X130313170Y-56300597D01*
X130313162Y-56300597D01*
X130313154Y-56300597D01*
X130289789Y-56300597D01*
X130222750Y-56280912D01*
X130176995Y-56228108D01*
X130165789Y-56176597D01*
X130165789Y-50486939D01*
X130185474Y-50419900D01*
X130202103Y-50399263D01*
X139544548Y-41056817D01*
X139605871Y-41023333D01*
X139632229Y-41020499D01*
X140007769Y-41020499D01*
X140074808Y-41040184D01*
X140095450Y-41056818D01*
X140591586Y-41552954D01*
X140621058Y-41572645D01*
X140665270Y-41602186D01*
X140714505Y-41635084D01*
X140714506Y-41635084D01*
X140714507Y-41635085D01*
X140714509Y-41635086D01*
X140851082Y-41691656D01*
X140851087Y-41691658D01*
X140851091Y-41691658D01*
X140851092Y-41691659D01*
X140996079Y-41720500D01*
X140996082Y-41720500D01*
X150343920Y-41720500D01*
X150441462Y-41701096D01*
X150488913Y-41691658D01*
X150625495Y-41635084D01*
X150674729Y-41602186D01*
X150674734Y-41602183D01*
X150699071Y-41585921D01*
X150748416Y-41552952D01*
X151244549Y-41056817D01*
X151305872Y-41023333D01*
X151332230Y-41020499D01*
X152120002Y-41020499D01*
X152120008Y-41020499D01*
X152222797Y-41009999D01*
X152389334Y-40954814D01*
X152538656Y-40862712D01*
X152662712Y-40738656D01*
X152754814Y-40589334D01*
X152809999Y-40422797D01*
X152820500Y-40320009D01*
X152820499Y-39119992D01*
X152809999Y-39017203D01*
X152754814Y-38850666D01*
X152662712Y-38701344D01*
X152538656Y-38577288D01*
X152389334Y-38485186D01*
X152222797Y-38430001D01*
X152222795Y-38430000D01*
X152120010Y-38419500D01*
X150919998Y-38419500D01*
X150919981Y-38419501D01*
X150817203Y-38430000D01*
X150817200Y-38430001D01*
X150650668Y-38485185D01*
X150650663Y-38485187D01*
X150501342Y-38577289D01*
X150377289Y-38701342D01*
X150285187Y-38850663D01*
X150285186Y-38850666D01*
X150230001Y-39017203D01*
X150230001Y-39017204D01*
X150230000Y-39017204D01*
X150219500Y-39119983D01*
X150219500Y-39907769D01*
X150199815Y-39974808D01*
X150183181Y-39995450D01*
X149995451Y-40183181D01*
X149934128Y-40216666D01*
X149907770Y-40219500D01*
X141432230Y-40219500D01*
X141365191Y-40199815D01*
X141344549Y-40183181D01*
X141156818Y-39995450D01*
X141123333Y-39934127D01*
X141120499Y-39907769D01*
X141120499Y-39119998D01*
X141120498Y-39119981D01*
X141109999Y-39017203D01*
X141109998Y-39017200D01*
X141054814Y-38850666D01*
X140962712Y-38701344D01*
X140838656Y-38577288D01*
X140689334Y-38485186D01*
X140522797Y-38430001D01*
X140522795Y-38430000D01*
X140420010Y-38419500D01*
X139219998Y-38419500D01*
X139219981Y-38419501D01*
X139117203Y-38430000D01*
X139117200Y-38430001D01*
X138950668Y-38485185D01*
X138950663Y-38485187D01*
X138801342Y-38577289D01*
X138677289Y-38701342D01*
X138585187Y-38850663D01*
X138585186Y-38850666D01*
X138530001Y-39017203D01*
X138530001Y-39017204D01*
X138530000Y-39017204D01*
X138519500Y-39119983D01*
X138519500Y-39907769D01*
X138499815Y-39974808D01*
X138483181Y-39995450D01*
X128832339Y-49646291D01*
X128832333Y-49646299D01*
X128783101Y-49719979D01*
X128783102Y-49719980D01*
X128750210Y-49769207D01*
X128750203Y-49769219D01*
X128693631Y-49905797D01*
X128693629Y-49905803D01*
X128664789Y-50050790D01*
X128664789Y-56176597D01*
X128645104Y-56243636D01*
X128592300Y-56289391D01*
X128540794Y-56300597D01*
X128517421Y-56300597D01*
X128517412Y-56300598D01*
X128457805Y-56307005D01*
X128322960Y-56357299D01*
X128322953Y-56357303D01*
X128207744Y-56443549D01*
X128207741Y-56443552D01*
X128121495Y-56558761D01*
X128121491Y-56558768D01*
X128071197Y-56693614D01*
X128064790Y-56753213D01*
X128064790Y-56753220D01*
X128064789Y-56753232D01*
X128064789Y-58548967D01*
X128064790Y-58548973D01*
X128071197Y-58608580D01*
X128121491Y-58743425D01*
X128121495Y-58743432D01*
X128207741Y-58858641D01*
X128207744Y-58858644D01*
X128322953Y-58944890D01*
X128322960Y-58944894D01*
X128457806Y-58995188D01*
X128457805Y-58995188D01*
X128464733Y-58995932D01*
X128517416Y-59001597D01*
X129653058Y-59001596D01*
X129682498Y-59010240D01*
X129712485Y-59016764D01*
X129717500Y-59020518D01*
X129720097Y-59021281D01*
X129740739Y-59037915D01*
X129913181Y-59210357D01*
X129946666Y-59271680D01*
X129949500Y-59298038D01*
X129949500Y-79667990D01*
X129929815Y-79735029D01*
X129877011Y-79780784D01*
X129807853Y-79790728D01*
X129777338Y-79781065D01*
X129776954Y-79781994D01*
X129772452Y-79780129D01*
X129658916Y-79743239D01*
X129607701Y-79726598D01*
X129607699Y-79726597D01*
X129607698Y-79726597D01*
X129476271Y-79705781D01*
X129436611Y-79699500D01*
X129263389Y-79699500D01*
X129223728Y-79705781D01*
X129092302Y-79726597D01*
X128927552Y-79780128D01*
X128773211Y-79858768D01*
X128750500Y-79875269D01*
X128633072Y-79960586D01*
X128633070Y-79960588D01*
X128633069Y-79960588D01*
X128510588Y-80083069D01*
X128510588Y-80083070D01*
X128510586Y-80083072D01*
X128466859Y-80143256D01*
X128408768Y-80223211D01*
X128330128Y-80377552D01*
X128276597Y-80542302D01*
X128249500Y-80713389D01*
X128249500Y-80886611D01*
X128276598Y-81057701D01*
X128330127Y-81222445D01*
X128408768Y-81376788D01*
X128510586Y-81516928D01*
X128633072Y-81639414D01*
X128773212Y-81741232D01*
X128927555Y-81819873D01*
X129092299Y-81873402D01*
X129263389Y-81900500D01*
X129263390Y-81900500D01*
X129436610Y-81900500D01*
X129436611Y-81900500D01*
X129607701Y-81873402D01*
X129772445Y-81819873D01*
X129772448Y-81819870D01*
X129772452Y-81819870D01*
X129776954Y-81818006D01*
X129777746Y-81819920D01*
X129837873Y-81808628D01*
X129902614Y-81834904D01*
X129942871Y-81892010D01*
X129949500Y-81932009D01*
X129949500Y-104557769D01*
X129929815Y-104624808D01*
X129913181Y-104645450D01*
X128178807Y-106379824D01*
X128117484Y-106413309D01*
X128071728Y-106414616D01*
X127976292Y-106399500D01*
X127976287Y-106399500D01*
X127763713Y-106399500D01*
X127715042Y-106407208D01*
X127553760Y-106432753D01*
X127351585Y-106498444D01*
X127162179Y-106594951D01*
X126990213Y-106719890D01*
X126839890Y-106870213D01*
X126714951Y-107042179D01*
X126618444Y-107231585D01*
X126552753Y-107433760D01*
X126519500Y-107643713D01*
X86635500Y-107643713D01*
X86635500Y-80713389D01*
X118089500Y-80713389D01*
X118089500Y-80886611D01*
X118116598Y-81057701D01*
X118170127Y-81222445D01*
X118248768Y-81376788D01*
X118350586Y-81516928D01*
X118473072Y-81639414D01*
X118613212Y-81741232D01*
X118767555Y-81819873D01*
X118932299Y-81873402D01*
X119103389Y-81900500D01*
X119103390Y-81900500D01*
X119276610Y-81900500D01*
X119276611Y-81900500D01*
X119447701Y-81873402D01*
X119612445Y-81819873D01*
X119766788Y-81741232D01*
X119906928Y-81639414D01*
X120029414Y-81516928D01*
X120131232Y-81376788D01*
X120209873Y-81222445D01*
X120263402Y-81057701D01*
X120290500Y-80886611D01*
X120290500Y-80713389D01*
X120280854Y-80652486D01*
X122019500Y-80652486D01*
X122019500Y-80947513D01*
X122051571Y-81191113D01*
X122058007Y-81239993D01*
X122132212Y-81516930D01*
X122134361Y-81524951D01*
X122134364Y-81524961D01*
X122247254Y-81797500D01*
X122247258Y-81797510D01*
X122394761Y-82052993D01*
X122574352Y-82287040D01*
X122574358Y-82287047D01*
X122782952Y-82495641D01*
X122782959Y-82495647D01*
X123017006Y-82675238D01*
X123272489Y-82822741D01*
X123272490Y-82822741D01*
X123272493Y-82822743D01*
X123545048Y-82935639D01*
X123830007Y-83011993D01*
X124122494Y-83050500D01*
X124122501Y-83050500D01*
X124417499Y-83050500D01*
X124417506Y-83050500D01*
X124709993Y-83011993D01*
X124994952Y-82935639D01*
X125267507Y-82822743D01*
X125522994Y-82675238D01*
X125757042Y-82495646D01*
X125965646Y-82287042D01*
X126145238Y-82052994D01*
X126292743Y-81797507D01*
X126405639Y-81524952D01*
X126481993Y-81239993D01*
X126520500Y-80947506D01*
X126520500Y-80652494D01*
X126481993Y-80360007D01*
X126405639Y-80075048D01*
X126292743Y-79802493D01*
X126285950Y-79790728D01*
X126145238Y-79547006D01*
X125965647Y-79312959D01*
X125965641Y-79312952D01*
X125757047Y-79104358D01*
X125757040Y-79104352D01*
X125522993Y-78924761D01*
X125267510Y-78777258D01*
X125267500Y-78777254D01*
X124994961Y-78664364D01*
X124994954Y-78664362D01*
X124994952Y-78664361D01*
X124709993Y-78588007D01*
X124661113Y-78581571D01*
X124417513Y-78549500D01*
X124417506Y-78549500D01*
X124122494Y-78549500D01*
X124122486Y-78549500D01*
X123844085Y-78586153D01*
X123830007Y-78588007D01*
X123655428Y-78634785D01*
X123545048Y-78664361D01*
X123545038Y-78664364D01*
X123272499Y-78777254D01*
X123272489Y-78777258D01*
X123017006Y-78924761D01*
X122782959Y-79104352D01*
X122782952Y-79104358D01*
X122574358Y-79312952D01*
X122574352Y-79312959D01*
X122394761Y-79547006D01*
X122247258Y-79802489D01*
X122247254Y-79802499D01*
X122134364Y-80075038D01*
X122134361Y-80075048D01*
X122058008Y-80360004D01*
X122058006Y-80360015D01*
X122019500Y-80652486D01*
X120280854Y-80652486D01*
X120263402Y-80542299D01*
X120209873Y-80377555D01*
X120131232Y-80223212D01*
X120029414Y-80083072D01*
X119977482Y-80031140D01*
X119943997Y-79969817D01*
X119948981Y-79900125D01*
X119990853Y-79844192D01*
X120056317Y-79819775D01*
X120084561Y-79820986D01*
X120085212Y-79821089D01*
X120085215Y-79821090D01*
X120334038Y-79860500D01*
X120334039Y-79860500D01*
X120585961Y-79860500D01*
X120585962Y-79860500D01*
X120834785Y-79821090D01*
X121074379Y-79743241D01*
X121298845Y-79628870D01*
X121502656Y-79480793D01*
X121680793Y-79302656D01*
X121828870Y-79098845D01*
X121943241Y-78874379D01*
X122021090Y-78634785D01*
X122060500Y-78385962D01*
X122060500Y-78134038D01*
X122021090Y-77885215D01*
X121943241Y-77645621D01*
X121943239Y-77645618D01*
X121943239Y-77645616D01*
X121901747Y-77564184D01*
X121828870Y-77421155D01*
X121778325Y-77351585D01*
X121680798Y-77217350D01*
X121680794Y-77217345D01*
X121502654Y-77039205D01*
X121502649Y-77039201D01*
X121298848Y-76891132D01*
X121298847Y-76891131D01*
X121298845Y-76891130D01*
X121228747Y-76855413D01*
X121074383Y-76776760D01*
X120834785Y-76698910D01*
X120585962Y-76659500D01*
X120334038Y-76659500D01*
X120209626Y-76679205D01*
X120085214Y-76698910D01*
X119845616Y-76776760D01*
X119621151Y-76891132D01*
X119417350Y-77039201D01*
X119417345Y-77039205D01*
X119239205Y-77217345D01*
X119239201Y-77217350D01*
X119091132Y-77421151D01*
X118976760Y-77645616D01*
X118898910Y-77885214D01*
X118869580Y-78070394D01*
X118859500Y-78134038D01*
X118859500Y-78385962D01*
X118881169Y-78522771D01*
X118898910Y-78634785D01*
X118976760Y-78874383D01*
X119091132Y-79098848D01*
X119239201Y-79302649D01*
X119239205Y-79302654D01*
X119239207Y-79302656D01*
X119417344Y-79480793D01*
X119417345Y-79480794D01*
X119417344Y-79480794D01*
X119423661Y-79485383D01*
X119466327Y-79540714D01*
X119472305Y-79610327D01*
X119439699Y-79672122D01*
X119378860Y-79706479D01*
X119331378Y-79708174D01*
X119276611Y-79699500D01*
X119103389Y-79699500D01*
X119063728Y-79705781D01*
X118932302Y-79726597D01*
X118767552Y-79780128D01*
X118613211Y-79858768D01*
X118590500Y-79875269D01*
X118473072Y-79960586D01*
X118473070Y-79960588D01*
X118473069Y-79960588D01*
X118350588Y-80083069D01*
X118350588Y-80083070D01*
X118350586Y-80083072D01*
X118306859Y-80143256D01*
X118248768Y-80223211D01*
X118170128Y-80377552D01*
X118116597Y-80542302D01*
X118089500Y-80713389D01*
X86635500Y-80713389D01*
X86635500Y-46192135D01*
X95069500Y-46192135D01*
X95069500Y-47987870D01*
X95069501Y-47987876D01*
X95075908Y-48047483D01*
X95126202Y-48182328D01*
X95126206Y-48182335D01*
X95212452Y-48297544D01*
X95212455Y-48297547D01*
X95327664Y-48383793D01*
X95327671Y-48383797D01*
X95462517Y-48434091D01*
X95462516Y-48434091D01*
X95469444Y-48434835D01*
X95522127Y-48440500D01*
X96834547Y-48440499D01*
X96901586Y-48460184D01*
X96922228Y-48476818D01*
X106582360Y-58136952D01*
X106582364Y-58136955D01*
X106684807Y-58205406D01*
X106684808Y-58205406D01*
X106684812Y-58205409D01*
X106751494Y-58233029D01*
X106798645Y-58252560D01*
X106818694Y-58256548D01*
X106883721Y-58269482D01*
X106919489Y-58276598D01*
X106919491Y-58276598D01*
X107048818Y-58276598D01*
X107048838Y-58276597D01*
X112940790Y-58276597D01*
X113007829Y-58296282D01*
X113053584Y-58349086D01*
X113064790Y-58400597D01*
X113064790Y-58548973D01*
X113071197Y-58608580D01*
X113121491Y-58743425D01*
X113121495Y-58743432D01*
X113207741Y-58858641D01*
X113207744Y-58858644D01*
X113322953Y-58944890D01*
X113322960Y-58944894D01*
X113457806Y-58995188D01*
X113457805Y-58995188D01*
X113464733Y-58995932D01*
X113517416Y-59001597D01*
X115313161Y-59001596D01*
X115372772Y-58995188D01*
X115507620Y-58944893D01*
X115622835Y-58858643D01*
X115709085Y-58743428D01*
X115759380Y-58608580D01*
X115765789Y-58548970D01*
X115765788Y-56753225D01*
X115759380Y-56693614D01*
X115709085Y-56558766D01*
X115709084Y-56558765D01*
X115709082Y-56558761D01*
X115622836Y-56443552D01*
X115622833Y-56443549D01*
X115507624Y-56357303D01*
X115507617Y-56357299D01*
X115372771Y-56307005D01*
X115372772Y-56307005D01*
X115313172Y-56300598D01*
X115313170Y-56300597D01*
X115313162Y-56300597D01*
X115313153Y-56300597D01*
X113517418Y-56300597D01*
X113517412Y-56300598D01*
X113457805Y-56307005D01*
X113322960Y-56357299D01*
X113322953Y-56357303D01*
X113207744Y-56443549D01*
X113207741Y-56443552D01*
X113121495Y-56558761D01*
X113121491Y-56558768D01*
X113071197Y-56693614D01*
X113064790Y-56753213D01*
X113064790Y-56753220D01*
X113064789Y-56753232D01*
X113064789Y-56901597D01*
X113045104Y-56968636D01*
X112992300Y-57014391D01*
X112940789Y-57025597D01*
X107291550Y-57025597D01*
X107224511Y-57005912D01*
X107203869Y-56989278D01*
X97806818Y-47592227D01*
X97773333Y-47530904D01*
X97770499Y-47504546D01*
X97770499Y-46192129D01*
X97770498Y-46192123D01*
X97770497Y-46192116D01*
X97764091Y-46132517D01*
X97713796Y-45997669D01*
X97713795Y-45997668D01*
X97713793Y-45997664D01*
X97627547Y-45882455D01*
X97627544Y-45882452D01*
X97512335Y-45796206D01*
X97512328Y-45796202D01*
X97377482Y-45745908D01*
X97377483Y-45745908D01*
X97317883Y-45739501D01*
X97317881Y-45739500D01*
X97317873Y-45739500D01*
X97317864Y-45739500D01*
X95522129Y-45739500D01*
X95522123Y-45739501D01*
X95462516Y-45745908D01*
X95327671Y-45796202D01*
X95327664Y-45796206D01*
X95212455Y-45882452D01*
X95212452Y-45882455D01*
X95126206Y-45997664D01*
X95126202Y-45997671D01*
X95075908Y-46132517D01*
X95069501Y-46192116D01*
X95069501Y-46192123D01*
X95069500Y-46192135D01*
X86635500Y-46192135D01*
X86635500Y-30113899D01*
X89153600Y-30113899D01*
X89153600Y-30376154D01*
X89174536Y-30535167D01*
X89187830Y-30636143D01*
X89209278Y-30716188D01*
X89255702Y-30889445D01*
X89255705Y-30889455D01*
X89356053Y-31131717D01*
X89356058Y-31131727D01*
X89487175Y-31358830D01*
X89646818Y-31566878D01*
X89646826Y-31566887D01*
X89832240Y-31752301D01*
X89832248Y-31752308D01*
X90040296Y-31911951D01*
X90267399Y-32043068D01*
X90267409Y-32043073D01*
X90392280Y-32094796D01*
X90509681Y-32143425D01*
X90762984Y-32211297D01*
X91022980Y-32245527D01*
X91022987Y-32245527D01*
X91285213Y-32245527D01*
X91285220Y-32245527D01*
X91545216Y-32211297D01*
X91798519Y-32143425D01*
X92040797Y-32043070D01*
X92267903Y-31911951D01*
X92475951Y-31752309D01*
X92475955Y-31752304D01*
X92475960Y-31752301D01*
X92661374Y-31566887D01*
X92661377Y-31566882D01*
X92661382Y-31566878D01*
X92821024Y-31358830D01*
X92952143Y-31131724D01*
X93052498Y-30889446D01*
X93120370Y-30636143D01*
X93154600Y-30376147D01*
X93154600Y-30165622D01*
X199118231Y-30165622D01*
X199118231Y-30427877D01*
X199132357Y-30535167D01*
X199152461Y-30687866D01*
X199217562Y-30930826D01*
X199220333Y-30941168D01*
X199220336Y-30941178D01*
X199320684Y-31183440D01*
X199320689Y-31183450D01*
X199451806Y-31410553D01*
X199611449Y-31618601D01*
X199611457Y-31618610D01*
X199796871Y-31804024D01*
X199796879Y-31804031D01*
X200004927Y-31963674D01*
X200232030Y-32094791D01*
X200232040Y-32094796D01*
X200474302Y-32195144D01*
X200474312Y-32195148D01*
X200727615Y-32263020D01*
X200987611Y-32297250D01*
X200987618Y-32297250D01*
X201249844Y-32297250D01*
X201249851Y-32297250D01*
X201509847Y-32263020D01*
X201763150Y-32195148D01*
X202005428Y-32094793D01*
X202232534Y-31963674D01*
X202440582Y-31804032D01*
X202440586Y-31804027D01*
X202440591Y-31804024D01*
X202626005Y-31618610D01*
X202626008Y-31618605D01*
X202626013Y-31618601D01*
X202785655Y-31410553D01*
X202916774Y-31183447D01*
X203017129Y-30941169D01*
X203085001Y-30687866D01*
X203119231Y-30427870D01*
X203119231Y-30165630D01*
X203085001Y-29905634D01*
X203017129Y-29652331D01*
X202995705Y-29600608D01*
X202916777Y-29410059D01*
X202916772Y-29410049D01*
X202785655Y-29182946D01*
X202626012Y-28974898D01*
X202626005Y-28974890D01*
X202440591Y-28789476D01*
X202440582Y-28789468D01*
X202232534Y-28629825D01*
X202005431Y-28498708D01*
X202005421Y-28498703D01*
X201763159Y-28398355D01*
X201763152Y-28398353D01*
X201763150Y-28398352D01*
X201509847Y-28330480D01*
X201452070Y-28322873D01*
X201249858Y-28296250D01*
X201249851Y-28296250D01*
X200987611Y-28296250D01*
X200987603Y-28296250D01*
X200756503Y-28326676D01*
X200727615Y-28330480D01*
X200667335Y-28346632D01*
X200474312Y-28398352D01*
X200474302Y-28398355D01*
X200232040Y-28498703D01*
X200232030Y-28498708D01*
X200004927Y-28629825D01*
X199796879Y-28789468D01*
X199611449Y-28974898D01*
X199451806Y-29182946D01*
X199320689Y-29410049D01*
X199320684Y-29410059D01*
X199220336Y-29652321D01*
X199220333Y-29652331D01*
X199152461Y-29905635D01*
X199118231Y-30165622D01*
X93154600Y-30165622D01*
X93154600Y-30113907D01*
X93120370Y-29853911D01*
X93052498Y-29600608D01*
X92999394Y-29472403D01*
X92952146Y-29358336D01*
X92952141Y-29358326D01*
X92821024Y-29131223D01*
X92661381Y-28923175D01*
X92661374Y-28923167D01*
X92475960Y-28737753D01*
X92475951Y-28737745D01*
X92267903Y-28578102D01*
X92040800Y-28446985D01*
X92040790Y-28446980D01*
X91798528Y-28346632D01*
X91798521Y-28346630D01*
X91798519Y-28346629D01*
X91545216Y-28278757D01*
X91487439Y-28271150D01*
X91285227Y-28244527D01*
X91285220Y-28244527D01*
X91022980Y-28244527D01*
X91022972Y-28244527D01*
X90791872Y-28274953D01*
X90762984Y-28278757D01*
X90569950Y-28330480D01*
X90509681Y-28346629D01*
X90509671Y-28346632D01*
X90267409Y-28446980D01*
X90267399Y-28446985D01*
X90040296Y-28578102D01*
X89832248Y-28737745D01*
X89646818Y-28923175D01*
X89487175Y-29131223D01*
X89356058Y-29358326D01*
X89356053Y-29358336D01*
X89255705Y-29600598D01*
X89255702Y-29600608D01*
X89187830Y-29853912D01*
X89153600Y-30113899D01*
X86635500Y-30113899D01*
X86635500Y-25909500D01*
X86655185Y-25842461D01*
X86707989Y-25796706D01*
X86759500Y-25785500D01*
X205510500Y-25785500D01*
X205577539Y-25805185D01*
G37*
%TD.AperFunction*%
%TD*%
M02*
