M48
; DRILL file KiCad 10.0.3 date 2026-05-24T03:38:14
; FORMAT={-:-/ absolute / metric / decimal}
; #@! TF.CreationDate,2026-05-24T03:38:14-07:00
; #@! TF.GenerationSoftware,Kicad,Pcbnew,10.0.3
; #@! TF.FileFunction,Plated,1,2,PTH
FMAT,2
METRIC
; #@! TA.AperFunction,Plated,PTH,ComponentDrill
T1C0.800
; #@! TA.AperFunction,Plated,PTH,ComponentDrill
T2C1.000
; #@! TA.AperFunction,Plated,PTH,ComponentDrill
T3C1.500
%
G90
G05
T1
X139.82Y-39.72
X142.32Y-39.72
X151.52Y-39.72
X154.02Y-39.72
T2
X96.42Y-47.09
X96.42Y-49.63
X114.415Y-47.651
X114.415Y-57.651
X127.87Y-105.21
X127.87Y-107.75
X127.87Y-110.29
X127.87Y-112.83
X129.415Y-47.651
X129.415Y-57.651
X156.55Y-124.87
X156.55Y-127.41
X156.55Y-129.95
X156.55Y-132.49
X156.55Y-135.03
X186.0Y-65.17
X186.0Y-67.71
X186.0Y-70.25
X186.0Y-72.79
X186.0Y-75.33
X186.0Y-77.87
X186.35Y-98.72
X186.35Y-101.26
X186.35Y-103.8
X186.35Y-106.34
X186.35Y-108.88
X186.35Y-111.42
T3
X120.46Y-78.26
X126.81Y-75.72
M30
